<svg xmlns="http://www.w3.org/2000/svg" width="48" height="48" fill="none" viewBox="0 0 48 48"><defs><linearGradient id="th-main" x1="2" x2="22" y1="6" y2="42" gradientUnits="userSpaceOnUse"><stop stop-color="#f97316"/><stop offset="1" stop-color="#c2410c"/></linearGradient><linearGradient id="th-browser" x1="28" x2="46" y1="6" y2="42" gradientUnits="userSpaceOnUse"><stop stop-color="#fb923c"/><stop offset="1" stop-color="#ea580c"/></linearGradient></defs><rect width="18" height="32" x="2" y="8" fill="url(#th-main)" opacity=".12" rx="3"/><rect width="18" height="32" x="2" y="8" fill="none" stroke="url(#th-main)" stroke-width="1.3" rx="3"/><rect width="12" height="2" x="5" y="14" fill="#f97316" opacity=".6" rx="1"/><rect width="10" height="2" x="5" y="19" fill="#f97316" opacity=".5" rx="1"/><rect width="11" height="2" x="5" y="24" fill="#f97316" opacity=".4" rx="1"/><rect width="9" height="2" x="5" y="29" fill="#f97316" opacity=".35" rx="1"/><rect width="12" height="2" x="5" y="34" fill="#f97316" opacity=".3" rx="1"/><circle cx="23" cy="18" r="1.2" fill="#fb923c" opacity=".7"/><circle cx="25" cy="24" r="1" fill="#fb923c" opacity=".5"/><circle cx="23.5" cy="30" r="1.1" fill="#fb923c" opacity=".4"/><path fill="none" stroke="#fb923c" stroke-linecap="round" stroke-width="1" d="M20 15c2-1 4 2 6 1s3-3 5-2" opacity=".3"/><path fill="none" stroke="#fb923c" stroke-linecap="round" stroke-width="1" d="M20 24c2.5 0 3 2 5 1.5s3-2.5 5.5-1.5" opacity=".25"/><path fill="none" stroke="#fb923c" stroke-linecap="round" stroke-width="1" d="M20 33c2-1 3.5 1.5 5.5 0.5s3-2 5-1" opacity=".2"/><rect width="18" height="32" x="28" y="8" fill="url(#th-browser)" opacity=".12" rx="3"/><rect width="18" height="32" x="28" y="8" fill="none" stroke="url(#th-browser)" stroke-width="1.3" rx="3"/><circle cx="32" cy="12" r="1.2" fill="#f97316" opacity=".45"/><circle cx="35.5" cy="12" r="1.2" fill="#f97316" opacity=".35"/><circle cx="39" cy="12" r="1.2" fill="#f97316" opacity=".25"/><rect width="12" height="2.5" x="31" y="15.5" fill="#f97316" opacity=".15" rx="1.25"/><rect width="11" height="2" x="31" y="21" fill="#fb923c" opacity=".55" rx="1"/><rect width="9" height="2" x="31" y="25.5" fill="#fb923c" opacity=".45" rx="1"/><rect width="10" height="2" x="31" y="30" fill="#fb923c" opacity=".35" rx="1"/><rect width="8" height="2" x="31" y="34.5" fill="#fb923c" opacity=".25" rx="1"/><rect width="8" height="5.5" x="21" y="5" fill="#c2410c" rx="2.5"/><text x="25" y="9.2" fill="#fff" font-family="sans-serif" font-size="3.2" font-weight="800" text-anchor="middle">WS</text></svg>